<svg xmlns="http://www.w3.org/2000/svg" width="24" height="24" viewBox="0 0 24 24"><defs><style>.a{fill:#707070;}.b{fill:none;}</style></defs><g transform="translate(-1059 -226)"><g transform="translate(1061 227.883)"><path class="a" d="M16.275,16.464h-3.32v1.97h3.32c.988,0,1.754.5,1.754.938V28.11c0,.434-.766.939-1.754.939H3.724c-.987,0-1.754-.5-1.754-.939V19.374c0-.434.766-.939,1.754-.939h3.32v-1.97H3.724C1.636,16.465,0,17.742,0,19.374V28.11c0,1.631,1.636,2.909,3.724,2.909H16.276c2.088,0,3.724-1.278,3.724-2.909V19.374C20,17.742,18.364,16.464,16.275,16.464Z" transform="translate(0 -10.979)"/><path class="a" d="M25.454,9.6a.982.982,0,0,0-.7.289l-1.233,1.233V1.1a.985.985,0,1,0-1.97,0V11.192l-1.3-1.3a.985.985,0,1,0-1.393,1.393L21.8,14.226a.981.981,0,0,0,.7.288h.015a.98.98,0,0,0,.7-.288l2.941-2.941a.985.985,0,0,0-.7-1.681Z" transform="translate(-12.473)"/></g><rect class="b" width="24" height="24" transform="translate(1059 226)"/></g></svg>