<svg xmlns="http://www.w3.org/2000/svg" xmlns:xlink="http://www.w3.org/1999/xlink" width="24" height="24" viewBox="0 0 24 24"><defs><style>.a{fill:none;}.b{clip-path:url(#a);}.c{fill:#fff;}</style><clipPath id="a"><rect class="a" width="24" height="24" transform="translate(564 14)"/></clipPath></defs><g class="b" transform="translate(-564 -14)"><g transform="translate(569 18.999)"><g transform="translate(0 0.001)"><path class="c" d="M13.24,6.024H7.977V.761A.944.944,0,0,0,7,0a.944.944,0,0,0-.977.76V6.024H.76A.944.944,0,0,0,0,7a.944.944,0,0,0,.76.977H6.023v5.264A.944.944,0,0,0,7,14a.944.944,0,0,0,.977-.76V7.978H13.24A.944.944,0,0,0,14,7,.944.944,0,0,0,13.24,6.024Z" transform="translate(0 -0.001)"/></g></g></g></svg>